<svg width="393" height="393" viewBox="0 0 393 393" fill="none" xmlns="http://www.w3.org/2000/svg">
<circle cx="196.5" cy="196.5" r="192" fill="#012738" stroke="#F28123" stroke-width="9"/>
<path d="M146.376 202.084V213.16H112.056V202.084H146.376ZM157.068 224.86V214.096L181.716 178.84H196.614V213.316H203.01V224.86H196.614V235H183.276V224.86H157.068ZM184.212 193.504L171.108 213.316H184.212V193.504ZM209.543 205.75C209.543 196.806 211.259 189.76 214.691 184.612C218.175 179.464 223.765 176.89 231.461 176.89C239.157 176.89 244.721 179.464 248.153 184.612C251.637 189.76 253.379 196.806 253.379 205.75C253.379 214.798 251.637 221.896 248.153 227.044C244.721 232.192 239.157 234.766 231.461 234.766C223.765 234.766 218.175 232.192 214.691 227.044C211.259 221.896 209.543 214.798 209.543 205.75ZM240.275 205.75C240.275 200.498 239.703 196.468 238.559 193.66C237.415 190.8 235.049 189.37 231.461 189.37C227.873 189.37 225.507 190.8 224.363 193.66C223.219 196.468 222.647 200.498 222.647 205.75C222.647 209.286 222.855 212.224 223.271 214.564C223.687 216.852 224.519 218.724 225.767 220.18C227.067 221.584 228.965 222.286 231.461 222.286C233.957 222.286 235.829 221.584 237.077 220.18C238.377 218.724 239.235 216.852 239.651 214.564C240.067 212.224 240.275 209.286 240.275 205.75ZM259.334 192.412C259.334 188.2 260.53 184.95 262.922 182.662C265.366 180.374 268.512 179.23 272.36 179.23C276.208 179.23 279.328 180.374 281.72 182.662C284.112 184.95 285.308 188.2 285.308 192.412C285.308 196.624 284.112 199.874 281.72 202.162C279.328 204.45 276.208 205.594 272.36 205.594C268.512 205.594 265.366 204.45 262.922 202.162C260.53 199.874 259.334 196.624 259.334 192.412ZM312.296 180.088L282.266 235H269.396L299.426 180.088H312.296ZM272.282 187.03C269.786 187.03 268.538 188.824 268.538 192.412C268.538 195.948 269.786 197.716 272.282 197.716C273.478 197.716 274.414 197.274 275.09 196.39C275.766 195.506 276.104 194.18 276.104 192.412C276.104 188.824 274.83 187.03 272.282 187.03ZM296.462 222.676C296.462 218.464 297.658 215.214 300.05 212.926C302.442 210.638 305.562 209.494 309.41 209.494C313.258 209.494 316.378 210.638 318.77 212.926C321.162 215.214 322.358 218.464 322.358 222.676C322.358 226.888 321.162 230.138 318.77 232.426C316.378 234.714 313.258 235.858 309.41 235.858C305.562 235.858 302.442 234.714 300.05 232.426C297.658 230.138 296.462 226.888 296.462 222.676ZM309.332 217.294C308.136 217.294 307.2 217.736 306.524 218.62C305.9 219.504 305.588 220.856 305.588 222.676C305.588 226.212 306.836 227.98 309.332 227.98C310.528 227.98 311.464 227.538 312.14 226.654C312.816 225.77 313.154 224.444 313.154 222.676C313.154 220.908 312.816 219.582 312.14 218.698C311.464 217.762 310.528 217.294 309.332 217.294Z" fill="#F28123"/>
</svg>
