<svg width="598" height="363" viewBox="0 0 598 363" fill="none" xmlns="http://www.w3.org/2000/svg">
<path fill-rule="evenodd" clip-rule="evenodd" d="M125.328 121.688C141.301 121.688 154.25 95.79 154.25 63.8438C154.25 31.8975 131.661 6 115.688 6C99.7144 6 96.4062 31.8975 96.4062 63.8438C96.4062 95.79 109.355 121.688 125.328 121.688ZM482.031 121.688C498.004 121.688 510.953 95.79 510.953 63.8438C510.953 31.8975 488.364 6 472.391 6C456.418 6 453.109 31.8975 453.109 63.8438C453.109 95.79 466.058 121.688 482.031 121.688Z" stroke="#F28123" stroke-width="11" stroke-linecap="round"/>
<path d="M3.5 359.203V86.625H594.219V359.203H3.5Z" fill="#051922" stroke="#F28123" stroke-width="7"/>
<path fill-rule="evenodd" clip-rule="evenodd" d="M207.236 266.412C207.236 275.436 204.372 283.332 198.646 290.099C192.919 296.867 185.833 300.251 177.388 300.251C160.382 300.251 147.888 292.153 139.905 275.957C131.229 270.288 126.891 265.487 126.891 261.554C126.891 259.587 128.105 257.967 130.535 256.695C135.278 254.15 139.616 252.877 143.55 252.877C152.111 252.877 157.837 257.967 160.729 268.148C162.117 270.924 163.564 273.701 165.067 276.477C166.571 279.254 168.596 280.642 171.141 280.642C177.967 280.642 181.379 275.783 181.379 266.065C181.379 257.389 179.818 251.547 176.694 248.539C175.306 247.266 169.753 244.605 160.035 240.556C152.284 237.317 146.037 231.764 141.294 223.897C137.013 216.725 134.815 209.263 134.7 201.512C134.584 189.017 137.707 177.912 144.07 168.194C150.78 157.782 159.11 152.576 169.059 152.576C180.628 152.576 189.073 157.203 194.394 166.458C197.865 172.243 199.832 179.415 200.294 187.976C201.567 192.372 202.203 196.364 202.203 199.95C202.203 202.264 201.914 204.173 201.336 205.676C199.6 209.957 196.187 212.097 191.097 212.097C187.279 212.097 183.809 210.709 180.685 207.932C177.215 204.924 175.074 200.702 174.265 195.265C173.918 193.414 174.294 191.563 175.393 189.712C176.492 187.861 177.041 186.819 177.041 186.588C177.041 186.357 176.925 186.125 176.694 185.894C176.81 185.315 176.868 184.737 176.868 184.159C176.868 180.688 174.843 179.068 170.794 179.3C166.861 179.531 163.795 182.134 161.597 187.109C159.63 191.389 158.763 196.306 158.994 201.859C159.341 211.692 165.819 219.559 178.429 225.459C188.379 230.087 195.262 234.656 199.08 239.168C204.517 245.647 207.236 254.728 207.236 266.412ZM312.396 259.818C311.586 261.322 309.793 262.248 307.016 262.595C306.785 262.595 304.297 262.71 299.554 262.942C300.364 268.148 303.372 274.626 308.578 282.377C311.586 284.575 313.09 287.468 313.09 291.054C313.09 296.723 309.619 299.557 302.678 299.557C296.084 299.557 291.572 297.879 289.142 294.524C288.333 293.368 287.812 291.806 287.581 289.839C287.581 288.567 287.523 287.236 287.407 285.848C286.366 284.807 283.242 278.097 278.036 265.718C268.55 267.107 256.866 269.073 242.983 271.618C241.595 274.973 240.091 279.832 238.471 286.195C238.703 287.352 238.818 288.451 238.818 289.492C238.818 292.616 237.777 295.016 235.695 296.694C233.612 298.371 231.125 299.21 228.233 299.21C224.994 299.21 221.986 297.995 219.209 295.566C216.433 293.136 215.044 290.302 215.044 287.063C215.044 284.17 216.375 281.568 219.036 279.254C227.712 235.177 238.24 198.735 250.618 169.929C250.387 168.541 250.271 167.153 250.271 165.764C250.271 159.98 252.238 156.162 256.171 154.311C257.791 153.617 259.873 153.27 262.419 153.27C267.277 153.27 271.326 154.022 274.566 155.526C278.73 157.608 280.813 160.732 280.813 164.897C280.813 168.714 279.772 172.127 277.689 175.135C279.887 194.802 284.63 217.476 291.919 243.159C292.613 243.044 294.985 242.465 299.034 241.424C301.463 240.73 303.314 240.383 304.587 240.383C306.091 240.383 307.305 240.73 308.231 241.424C312.28 244.547 314.304 248.365 314.304 252.877C314.304 255.306 313.668 257.62 312.396 259.818ZM270.748 246.63C268.781 239.341 265.658 225.343 261.377 204.635C253.163 222.567 248.305 237.953 246.801 250.795L270.748 246.63ZM391.179 268.495C391.873 269.883 392.22 271.445 392.22 273.18C392.22 276.072 391.323 278.849 389.53 281.51C387.737 284.17 385.655 285.935 383.283 286.802C380.911 287.67 377.528 288.104 373.131 288.104C368.735 288.104 365.554 288.393 363.587 288.971C361.621 289.55 359.365 291.343 356.82 294.351C354.621 296.78 350.804 298.4 345.366 299.21C342.012 299.673 338.599 298.516 335.128 295.739C331.657 292.963 329.286 289.55 328.013 285.501C327.782 284.691 327.666 283.939 327.666 283.245C327.666 281.741 328.505 280.064 330.182 278.213C331.86 276.362 332.641 274.742 332.525 273.354L325.237 168.194C325.237 167.731 324.629 166.661 323.415 164.983C322.2 163.306 321.593 161.889 321.593 160.732C321.593 159.112 322.46 157.55 324.196 156.047C326.625 153.848 330.096 152.749 334.608 152.749C338.425 152.749 342.098 153.559 345.627 155.179C349.155 156.799 351.382 158.707 352.308 160.905C352.886 162.178 353.175 163.277 353.175 164.203C353.175 165.244 352.655 166.285 351.614 167.326C350.572 168.367 350.11 169.351 350.225 170.276L356.472 266.065L366.884 261.901C369.082 260.859 371.309 259.847 373.565 258.864C375.821 257.88 377.701 257.389 379.205 257.389C383.37 257.389 387.361 261.091 391.179 268.495ZM461.979 173.4C459.319 175.598 455.906 176.697 451.741 176.697C450.006 176.697 447.981 176.523 445.668 176.176C442.313 177.217 439.305 178.259 436.644 179.3C430.165 181.729 425.885 183.812 423.803 185.547C423.108 197.578 423.108 211.345 423.803 226.847C424.497 226.385 426.232 225.922 429.009 225.459C430.397 223.03 432.768 221.815 436.123 221.815C439.478 221.815 443.383 223.434 447.837 226.674C452.291 229.913 454.518 233.094 454.518 236.218C454.518 237.028 454.344 237.838 453.997 238.647C452.609 242.118 450.469 244.316 447.576 245.242C445.841 245.82 443.296 245.965 439.941 245.675C436.586 245.386 434.446 245.473 433.52 245.936C430.859 247.208 427.62 248.712 423.803 250.448C423.803 260.859 424.15 267.569 424.844 270.577C429.703 269.42 433.752 268.032 436.991 266.412C437.569 265.603 438.148 264.851 438.726 264.157C439.883 262.884 441.965 262.363 444.973 262.595C448.213 262.826 451.568 264.677 455.038 268.148C458.509 271.618 460.244 275.147 460.244 278.733C460.244 281.857 458.914 284.17 456.253 285.674C453.592 287.178 449.138 287.699 442.891 287.236L426.579 295.392C425.885 295.739 424.381 296.896 422.067 298.863C420.332 300.367 418.77 301.119 417.382 301.119C416.919 301.119 416.399 301.061 415.82 300.945C409.689 299.094 404.136 294.293 399.161 286.542C398.814 285.964 398.641 285.269 398.641 284.46C398.641 284.113 399.277 281.799 400.549 277.518C399.277 243.853 399.045 207.99 399.855 169.929C399.045 168.772 398.641 167.615 398.641 166.458C398.641 162.641 402.169 160.211 409.226 159.17C410.73 158.939 412.639 159.344 414.952 160.385C416.456 161.195 417.903 161.947 419.291 162.641L440.115 156.047C440.577 155.931 441.908 155.237 444.106 153.964C445.61 153.039 447.345 152.576 449.312 152.576C450.237 152.576 451.336 152.692 452.609 152.923C455.154 153.386 457.67 155.381 460.157 158.91C462.645 162.438 463.888 165.764 463.888 168.888C463.888 170.855 463.252 172.358 461.979 173.4Z" fill="#F28123"/>
</svg>
